<?xml version="1.0" encoding="utf-8"?>
<!-- Generator: Adobe Illustrator 22.0.0, SVG Export Plug-In . SVG Version: 6.00 Build 0)  -->
<svg version="1.1" xmlns="http://www.w3.org/2000/svg" xmlns:xlink="http://www.w3.org/1999/xlink" x="0px" y="0px"
	 viewBox="0 0 256 256" style="enable-background:new 0 0 256 256;" xml:space="preserve">
<style type="text/css">
	.st0{display:none;}
	.st1{display:inline;}
	.st2{fill:none;stroke:#6B1D1D;stroke-width:0.5;stroke-miterlimit:10;}
	.st3{fill:#3A312A;}
	.st4{fill:#87796F;}
	.st5{fill:#D5DE58;}
	.st6{fill:#695B51;}
	.st7{fill:#FCE8CB;}
	.st8{fill:#F16C7A;}
	.st9{fill:#8AC6DD;}
	.st10{fill:#DECAAD;}
	.st11{fill:#D6DF58;}
	.st12{fill-rule:evenodd;clip-rule:evenodd;fill:#FCE8CB;}
	.st13{fill:#F5978A;}
	.st14{fill:#D7E057;}
	.st15{fill-rule:evenodd;clip-rule:evenodd;fill:#87796F;}
	.st16{fill:#6CA8BF;}
	.st17{fill:#B9C239;}
	.st18{fill:#D34E5C;}
	.st19{fill:#FAE6CA;}
	.st20{fill:#F8E4C8;}
	.st21{fill:#8AC5DC;}
	.st22{fill:#EF6D7A;}
	.st23{fill:#EB6E7A;}
	.st24{fill:#89C4DB;}
	.st25{fill-rule:evenodd;clip-rule:evenodd;fill:#F16C7A;}
	.st26{fill:#F7E3C7;}
	.st27{fill:#F6E2C6;}
	.st28{fill:#ED6E7A;}
	.st29{fill:#8AC3DA;}
	.st30{fill:#D5DC57;}
	.st31{fill-rule:evenodd;clip-rule:evenodd;fill:#D7E057;}
	.st32{fill-rule:evenodd;clip-rule:evenodd;fill:#F8E4C8;}
	.st33{fill:#D4DB56;}
	.st34{fill:#F59689;}
	.st35{fill:#DDC9AC;}
	.st36{fill:#D24E5C;}
	.st37{fill:#6A5C52;}
	.st38{fill:#6CA6BE;}
	.st39{fill:#B8C136;}
	.st40{fill-rule:evenodd;clip-rule:evenodd;fill:#FAE6CA;}
</style>
<g id="Layer_2" class="st0">
	<g class="st1">
		<g>
			<line class="st2" x1="0" y1="4.829" x2="256" y2="4.829"/>
			<line class="st2" x1="0" y1="16.56" x2="256" y2="16.56"/>
			<line class="st2" x1="0" y1="28.29" x2="256" y2="28.29"/>
			<line class="st2" x1="0" y1="40.021" x2="256" y2="40.021"/>
			<line class="st2" x1="0" y1="51.751" x2="256" y2="51.751"/>
			<line class="st2" x1="0" y1="63.482" x2="256" y2="63.482"/>
			<line class="st2" x1="0" y1="75.213" x2="256" y2="75.213"/>
			<line class="st2" x1="0" y1="86.943" x2="256" y2="86.943"/>
			<line class="st2" x1="0" y1="98.674" x2="256" y2="98.674"/>
			<line class="st2" x1="0" y1="110.404" x2="256" y2="110.404"/>
			<line class="st2" x1="0" y1="122.135" x2="256" y2="122.135"/>
			<line class="st2" x1="0" y1="133.865" x2="256" y2="133.865"/>
			<line class="st2" x1="0" y1="145.596" x2="256" y2="145.596"/>
			<line class="st2" x1="0" y1="157.326" x2="256" y2="157.326"/>
			<line class="st2" x1="0" y1="169.057" x2="256" y2="169.057"/>
			<line class="st2" x1="0" y1="180.788" x2="256" y2="180.788"/>
			<line class="st2" x1="0" y1="192.518" x2="256" y2="192.518"/>
			<line class="st2" x1="0" y1="204.249" x2="256" y2="204.249"/>
			<line class="st2" x1="0" y1="215.979" x2="256" y2="215.979"/>
			<line class="st2" x1="0" y1="227.71" x2="256" y2="227.71"/>
			<line class="st2" x1="0" y1="239.44" x2="256" y2="239.44"/>
			<line class="st2" x1="0" y1="251.171" x2="256" y2="251.171"/>
		</g>
		<g>
			<line class="st2" x1="251.171" y1="0" x2="251.171" y2="256"/>
			<line class="st2" x1="239.44" y1="0" x2="239.44" y2="256"/>
			<line class="st2" x1="227.71" y1="0" x2="227.71" y2="256"/>
			<line class="st2" x1="215.979" y1="0" x2="215.979" y2="256"/>
			<line class="st2" x1="204.249" y1="0" x2="204.249" y2="256"/>
			<line class="st2" x1="192.518" y1="0" x2="192.518" y2="256"/>
			<line class="st2" x1="180.788" y1="0" x2="180.788" y2="256"/>
			<line class="st2" x1="169.057" y1="0" x2="169.057" y2="256"/>
			<line class="st2" x1="157.326" y1="0" x2="157.326" y2="256"/>
			<line class="st2" x1="145.596" y1="0" x2="145.596" y2="256"/>
			<line class="st2" x1="133.865" y1="0" x2="133.865" y2="256"/>
			<line class="st2" x1="122.135" y1="0" x2="122.135" y2="256"/>
			<line class="st2" x1="110.404" y1="0" x2="110.404" y2="256"/>
			<line class="st2" x1="98.674" y1="0" x2="98.674" y2="256"/>
			<line class="st2" x1="86.943" y1="0" x2="86.943" y2="256"/>
			<line class="st2" x1="75.212" y1="0" x2="75.212" y2="256"/>
			<line class="st2" x1="63.482" y1="0" x2="63.482" y2="256"/>
			<line class="st2" x1="51.751" y1="0" x2="51.751" y2="256"/>
			<line class="st2" x1="40.021" y1="0" x2="40.021" y2="256"/>
			<line class="st2" x1="28.29" y1="0" x2="28.29" y2="256"/>
			<line class="st2" x1="16.56" y1="0" x2="16.56" y2="256"/>
			<line class="st2" x1="4.829" y1="0" x2="4.829" y2="256"/>
		</g>
	</g>
</g>
<g id="Layer_1">
	<g>
		<path class="st4" d="M222.395,180.635H33.605c-9.447,0-17.105-7.658-17.105-17.105V33.241c0-9.447,7.658-17.106,17.105-17.106
			h188.789c9.447,0,17.105,7.659,17.105,17.106V163.53C239.5,172.977,231.842,180.635,222.395,180.635z"/>
		<path class="st3" d="M222.395,182.135H33.605C23.347,182.135,15,173.789,15,163.53V33.241c0-10.259,8.347-18.605,18.605-18.605
			h188.789c10.259,0,18.605,8.346,18.605,18.605V163.53C241,173.789,232.653,182.135,222.395,182.135z M33.605,17.635
			c-8.604,0-15.605,7-15.605,15.605V163.53c0,8.605,7.001,15.605,15.605,15.605h188.789c8.604,0,15.605-7.001,15.605-15.605V33.241
			c0-8.605-7.001-15.605-15.605-15.605H33.605z"/>
		<path class="st14" d="M86.201,28.635h-45.17c-6.583,0-11.92,5.337-11.92,11.92v115.66c0,6.583,5.337,11.92,11.92,11.92h173.938
			c6.583,0,11.92-5.337,11.92-11.92V40.555c0-6.583-5.337-11.92-11.92-11.92H99.799H86.201z"/>
		<path class="st3" d="M214.969,169.635H41.031c-7.4,0-13.42-6.02-13.42-13.42V40.555c0-7.4,6.02-13.42,13.42-13.42h45.17
			c0.828,0,1.5,0.671,1.5,1.5c0,0.829-0.672,1.5-1.5,1.5h-45.17c-5.745,0-10.42,4.674-10.42,10.42v115.66
			c0,5.746,4.675,10.42,10.42,10.42h173.938c5.745,0,10.42-4.674,10.42-10.42V40.555c0-5.746-4.675-10.42-10.42-10.42H99.799
			c-0.828,0-1.5-0.671-1.5-1.5c0-0.829,0.672-1.5,1.5-1.5h115.17c7.399,0,13.42,6.02,13.42,13.42v115.66
			C228.389,163.615,222.368,169.635,214.969,169.635z"/>
		<rect x="113.688" y="180.635" class="st4" width="28.625" height="35.593"/>
		<path class="st3" d="M142.312,217.729h-28.625c-0.828,0-1.5-0.671-1.5-1.5v-35.593c0-0.829,0.672-1.5,1.5-1.5h28.625
			c0.828,0,1.5,0.671,1.5,1.5v35.593C143.812,217.057,143.141,217.729,142.312,217.729z M115.188,214.729h25.625v-32.593h-25.625
			V214.729z"/>
		<path class="st4" d="M135.452,239.635h36.252c0-12.927-10.479-23.407-23.407-23.407h-40.593c-12.927,0-23.407,10.48-23.407,23.407
			h37.584H135.452z"/>
		<path class="st3" d="M171.703,241.135h-36.252c-0.828,0-1.5-0.671-1.5-1.5c0-0.829,0.672-1.5,1.5-1.5h34.701
			c-0.773-11.382-10.28-20.407-21.855-20.407h-40.594c-11.575,0-21.082,9.024-21.855,20.407h36.033c0.828,0,1.5,0.671,1.5,1.5
			c0,0.829-0.672,1.5-1.5,1.5H84.297c-0.828,0-1.5-0.671-1.5-1.5c0-13.733,11.173-24.907,24.906-24.907h40.594
			c13.733,0,24.906,11.173,24.906,24.907C173.203,240.464,172.531,241.135,171.703,241.135z"/>
		<path class="st14" d="M226.278,203.469c0,0,3.408,12.659,13.222,13.247c0,0-13.1,4.525-13.321,14.202
			c0,0-2.579-13.572-12.925-14.059C213.254,216.859,225.304,215.033,226.278,203.469z"/>
		<path class="st3" d="M226.178,232.417c-0.713,0-1.335-0.506-1.473-1.217c-0.023-0.124-2.494-12.418-11.521-12.842
			c-0.77-0.037-1.388-0.651-1.428-1.421c-0.04-0.77,0.511-1.445,1.273-1.56c0.441-0.069,10.895-1.817,11.754-12.033
			c0.061-0.725,0.635-1.301,1.359-1.367c0.733-0.059,1.394,0.399,1.584,1.102c0.031,0.116,3.259,11.626,11.863,12.141
			c0.714,0.043,1.297,0.584,1.396,1.292c0.098,0.708-0.318,1.388-0.994,1.623c-0.121,0.042-12.119,4.311-12.312,12.819
			c-0.018,0.767-0.61,1.396-1.375,1.46C226.262,232.415,226.22,232.417,226.178,232.417z M218.436,216.688
			c3.878,1.969,6.231,5.746,7.587,8.876c2.026-4.021,5.941-6.787,8.949-8.427c-4.135-1.842-6.783-5.651-8.334-8.722
			C224.846,212.775,221.367,215.283,218.436,216.688z"/>
		<path class="st14" d="M204.579,220.45c0,0,2.411,8.954,9.352,9.369c0,0-9.266,3.201-9.422,10.046c0,0-1.824-9.6-9.142-9.944
			C195.367,229.921,203.891,228.629,204.579,220.45z"/>
		<path class="st3" d="M204.508,241.365c-0.714,0-1.337-0.507-1.473-1.22c-0.016-0.081-1.703-8.441-7.738-8.726
			c-0.771-0.037-1.388-0.651-1.428-1.421c-0.04-0.771,0.511-1.445,1.273-1.561c0.296-0.047,7.363-1.243,7.941-8.114
			c0.061-0.726,0.636-1.303,1.361-1.368c0.723-0.061,1.392,0.399,1.581,1.102l0,0c0.022,0.079,2.229,7.92,7.995,8.265
			c0.714,0.043,1.299,0.585,1.396,1.293c0.097,0.709-0.32,1.388-0.997,1.622c-0.08,0.028-8.282,2.952-8.412,8.662
			c-0.018,0.767-0.611,1.398-1.377,1.461C204.591,241.363,204.549,241.365,204.508,241.365z M199.989,229.837
			c2.106,1.333,3.523,3.395,4.447,5.28c1.376-2.232,3.515-3.872,5.364-4.972c-2.286-1.27-3.884-3.35-4.941-5.224
			C203.686,227.207,201.845,228.796,199.989,229.837z"/>
		<path class="st14" d="M204.579,193.792c0,0,2.411,8.954,9.352,9.37c0,0-9.266,3.201-9.422,10.046c0,0-1.824-9.6-9.142-9.944
			C195.367,203.263,203.891,201.972,204.579,193.792z"/>
		<path class="st3" d="M204.508,214.708c-0.714,0-1.337-0.507-1.473-1.22c-0.016-0.081-1.703-8.442-7.738-8.726
			c-0.771-0.037-1.388-0.651-1.428-1.421c-0.04-0.771,0.511-1.445,1.273-1.561c0.296-0.047,7.363-1.243,7.941-8.113
			c0.061-0.726,0.636-1.303,1.361-1.368c0.723-0.061,1.392,0.4,1.581,1.102l0,0c0.022,0.079,2.229,7.919,7.995,8.264
			c0.714,0.043,1.299,0.584,1.396,1.293c0.097,0.709-0.32,1.388-0.996,1.622c-0.081,0.028-8.283,2.953-8.413,8.662
			c-0.018,0.767-0.611,1.398-1.377,1.461C204.591,214.706,204.549,214.708,204.508,214.708z M199.989,203.18
			c2.107,1.333,3.523,3.394,4.447,5.28c1.376-2.232,3.515-3.872,5.364-4.973c-2.286-1.269-3.884-3.35-4.941-5.224
			C203.686,200.55,201.845,202.138,199.989,203.18z"/>
		<path class="st17" d="M214.97,30.135h-15c5.74,0,10.42,4.67,10.42,10.42v115.66c0,5.75-4.68,10.42-10.42,10.42h15
			c5.74,0,10.42-4.67,10.42-10.42V40.555C225.39,34.805,220.71,30.135,214.97,30.135z"/>
		<path class="st9" d="M170.44,95.613v32.03c0,4.5-3.645,8.145-8.145,8.145H90.687c-4.5,0-8.145-3.645-8.145-8.145v-32.03
			l43.949,22.353L170.44,95.613z"/>
		<path class="st3" d="M162.296,137.288H90.687c-5.318,0-9.645-4.327-9.645-9.645v-32.03c0-0.521,0.271-1.006,0.716-1.279
			c0.445-0.273,0.999-0.295,1.464-0.058l43.27,22.007l43.269-22.007c0.464-0.237,1.019-0.214,1.464,0.058
			c0.444,0.273,0.716,0.757,0.716,1.279v32.03C171.94,132.961,167.614,137.288,162.296,137.288z M84.042,98.058v29.585
			c0,3.664,2.981,6.645,6.645,6.645h71.608c3.664,0,6.645-2.981,6.645-6.645V98.058l-41.77,21.245c-0.426,0.218-0.934,0.218-1.359,0
			L84.042,98.058z"/>
		<polygon class="st9" points="126.491,50.699 60.366,84.332 126.491,117.965 192.616,84.332 		"/>
		<path class="st3" d="M126.491,119.465c-0.233,0-0.467-0.054-0.68-0.163L59.686,85.669c-0.504-0.256-0.82-0.772-0.82-1.337
			c0-0.564,0.316-1.081,0.82-1.337l66.125-33.633c0.426-0.218,0.934-0.218,1.359,0l66.125,33.633c0.504,0.256,0.82,0.772,0.82,1.337
			c0,0.564-0.316,1.081-0.82,1.337l-66.125,33.633C126.958,119.411,126.725,119.465,126.491,119.465z M63.675,84.332l62.816,31.95
			l62.816-31.95l-62.816-31.95L63.675,84.332z"/>
		<path class="st8" d="M192.616,84.332v40.965c-1.693-2.177-3.984-3.516-6.516-3.516c-2.516,0-4.806,1.339-6.5,3.516V90.945
			L192.616,84.332z"/>
		<path class="st3" d="M192.616,126.797c-0.454,0-0.895-0.207-1.184-0.579c-1.474-1.894-3.367-2.937-5.332-2.937
			c-1.955,0-3.843,1.043-5.316,2.937c-0.393,0.506-1.068,0.705-1.67,0.498c-0.607-0.208-1.014-0.778-1.014-1.419V90.945
			c0-0.564,0.317-1.082,0.82-1.337l13.016-6.613c0.465-0.236,1.021-0.214,1.464,0.059c0.445,0.272,0.716,0.757,0.716,1.278v40.965
			c0,0.641-0.407,1.211-1.014,1.419C192.943,126.771,192.779,126.797,192.616,126.797z M186.101,120.281
			c1.775,0,3.485,0.541,5.016,1.562V86.777l-10.016,5.088v29.977C182.627,120.822,184.332,120.281,186.101,120.281z"/>
		<ellipse class="st8" cx="186.105" cy="134.798" rx="9.528" ry="13.014"/>
		<path class="st3" d="M186.105,149.312c-6.081,0-11.028-6.511-11.028-14.515c0-8.003,4.947-14.514,11.028-14.514
			c6.081,0,11.028,6.511,11.028,14.514C197.134,142.801,192.186,149.312,186.105,149.312z M186.105,123.283
			c-4.427,0-8.028,5.165-8.028,11.514c0,6.349,3.602,11.515,8.028,11.515c4.427,0,8.028-5.165,8.028-11.515
			C194.134,128.448,190.532,123.283,186.105,123.283z"/>
		<polygon class="st8" points="19.95,207.283 16.88,210.352 16.88,239.6 78.384,239.6 82.972,235.012 37.597,189.636 
			30.775,196.458 		"/>
		<path class="st3" d="M78.385,241.1H16.881c-0.828,0-1.5-0.671-1.5-1.5v-29.248c0-0.398,0.158-0.779,0.439-1.06l3.069-3.069
			c0.586-0.586,1.535-0.586,2.121,0c0.586,0.585,0.586,1.536,0,2.121l-2.63,2.63V238.1h59.383l3.088-3.088l-43.255-43.254
			l-5.761,5.761c-0.586,0.586-1.535,0.586-2.121,0c-0.586-0.585-0.586-1.535,0-2.121l6.821-6.822c0.562-0.562,1.559-0.562,2.121,0
			l45.376,45.376c0.586,0.585,0.586,1.536,0,2.121l-4.588,4.588C79.164,240.942,78.782,241.1,78.385,241.1z"/>
		<path class="st9" d="M72.914,187.843l-11.131-11.131c-3.11-3.11-8.152-3.11-11.261,0l-12.924,12.924l45.376,45.376l12.924-12.924
			c3.11-3.11,3.11-8.152,0-11.261l-12.611-12.611L72.914,187.843z"/>
		<path class="st3" d="M82.973,236.512c-0.398,0-0.779-0.158-1.061-0.439l-45.376-45.376c-0.281-0.281-0.439-0.663-0.439-1.061
			c0-0.398,0.158-0.779,0.439-1.061l12.925-12.924c1.787-1.788,4.163-2.772,6.691-2.772c2.527,0,4.903,0.984,6.691,2.772
			l11.132,11.131l0,0l22.982,22.983c1.788,1.787,2.772,4.163,2.772,6.691c0,2.528-0.984,4.904-2.772,6.691l-12.924,12.924
			C83.752,236.354,83.37,236.512,82.973,236.512z M39.718,189.636l43.255,43.255l11.863-11.864c1.221-1.221,1.894-2.844,1.894-4.57
			c0-1.726-0.673-3.349-1.894-4.569l-34.114-34.115c-1.221-1.221-2.844-1.893-4.569-1.893c-1.726,0-3.35,0.672-4.57,1.893
			L39.718,189.636z"/>
		<path class="st4" d="M87.087,212.077c2.346,2.346,2.346,6.149,0,8.494c-2.346,2.346-6.149,2.346-8.495,0
			c-2.346-2.346-2.346-6.149,0-8.495C80.938,209.731,84.741,209.731,87.087,212.077z"/>
		<path class="st3" d="M82.839,223.827c-1.922,0-3.845-0.732-5.308-2.195c-2.927-2.927-2.927-7.689,0-10.616
			c2.927-2.927,7.691-2.926,10.616,0c2.927,2.927,2.927,7.689,0,10.616C86.685,223.095,84.762,223.827,82.839,223.827z
			 M82.84,211.819c-1.154,0-2.309,0.439-3.188,1.318c-1.757,1.757-1.757,4.616,0,6.373c1.757,1.756,4.615,1.757,6.374,0
			c1.757-1.757,1.757-4.616,0-6.373C85.147,212.259,83.993,211.819,82.84,211.819z"/>
		<path class="st7" d="M125.162,102.789l-15.099,15.099l-17.205,17.205l-4.114,4.114c-2.063,2.063-5.407,2.063-7.47,0
			l-12.167-12.167c-4.166-4.166-10.922-4.166-15.084-0.005c-2.083,2.083-3.125,4.811-3.125,7.539
			c0.005,2.733,1.047,5.461,3.13,7.544l9.414,9.414c3.879,3.879,4.861,9.801,2.435,14.727l-4.826,9.816
			c0.253,0.193,0.496,0.407,0.729,0.64l34.116,34.116c0.104,0.104,0.198,0.208,0.298,0.308l1.984-1.181
			c9.618-5.719,18.496-12.594,26.457-20.455c0.064-0.064,0.129-0.119,0.193-0.184l18.397-18.397c2.956-2.956,2.956-7.748,0-10.704
			l-0.069-0.069c-2.956-2.956-7.748-2.956-10.704,0l3.66-3.661c2.956-2.956,2.956-7.748,0-10.704l-0.07-0.07
			c-2.956-2.956-7.748-2.956-10.704,0l3.66-3.661c2.956-2.956,2.956-7.748,0-10.704l-0.069-0.069
			c-2.909-2.909-7.591-2.949-10.557-0.133l17.574-17.574c2.978-2.978,2.978-7.807,0-10.785v0
			C132.969,99.81,128.14,99.81,125.162,102.789z"/>
		<path class="st3" d="M96.194,212.638c-0.39,0-0.774-0.151-1.064-0.442l-0.297-0.308L60.72,177.775
			c-0.186-0.186-0.378-0.355-0.579-0.508c-0.568-0.435-0.751-1.211-0.434-1.854l4.826-9.816c2.142-4.351,1.277-9.577-2.15-13.004
			l-9.414-9.414c-2.296-2.295-3.563-5.35-3.569-8.602c0-3.25,1.266-6.304,3.563-8.603c4.742-4.743,12.461-4.74,17.205,0.005
			l12.167,12.167c1.475,1.475,3.875,1.475,5.35,0l36.417-36.418l0,0c3.558-3.558,9.348-3.559,12.907,0
			c3.559,3.558,3.559,9.348,0,12.907l-12.926,12.926c2.146,0.118,4.257,1.006,5.909,2.659c3.248,3.248,3.57,8.239,1.017,11.783
			c2.303,0.078,4.458,1.013,6.096,2.651c3.249,3.249,3.57,8.24,1.017,11.783c2.304,0.078,4.459,1.013,6.097,2.651
			c1.782,1.782,2.726,4.06,2.726,6.481c0,2.422-0.943,4.7-2.656,6.413l-18.536,18.53c-8.126,8.021-17.124,14.979-26.806,20.735
			l-1.984,1.18C96.722,212.569,96.457,212.638,96.194,212.638z M62.9,175.714l33.535,33.535l0.976-0.58
			c9.474-5.633,18.278-12.441,26.17-20.234l0.132-0.126l18.452-18.448c2.366-2.366,2.366-6.216,0-8.582
			c-1.216-1.216-2.74-1.847-4.361-1.847c-1.62,0-3.145,0.631-4.291,1.777l0,0c-0.586,0.586-1.535,0.586-2.121,0
			c-0.586-0.586-0.586-1.536,0-2.121l3.661-3.661c2.366-2.366,2.366-6.216,0-8.583c-1.217-1.216-2.74-1.847-4.361-1.847
			c-1.62,0-3.145,0.631-4.291,1.778l0,0c-0.586,0.586-1.535,0.586-2.121,0c-0.586-0.585-0.586-1.535,0-2.121l3.66-3.661
			c2.366-2.367,2.366-6.217,0-8.583c-2.412-2.411-6.129-2.458-8.533-0.175c-0.596,0.565-1.535,0.546-2.108-0.041
			c-0.573-0.588-0.566-1.527,0.014-2.107l17.574-17.573c2.389-2.389,2.389-6.276,0-8.665c-2.39-2.389-6.277-2.388-8.665,0
			l-36.417,36.418c-2.644,2.645-6.947,2.645-9.592,0L68.046,128.1c-3.575-3.575-9.39-3.576-12.963-0.005
			c-1.731,1.732-2.685,4.033-2.685,6.479c0.004,2.45,0.96,4.753,2.69,6.484l9.414,9.414c4.337,4.336,5.43,10.947,2.721,16.45
			L62.9,175.714z"/>
	</g>
</g>
</svg>
